# Blender v2.92.0 OBJ File: ''
# www.blender.org
mtllib karatahta.mtl
o Cube
v 0.100000 -0.100000 -4.866504
v 0.100000 0.100000 -4.866504
v 0.100000 -0.100000 4.866504
v 0.100000 0.100000 4.866504
v -0.100000 -0.100000 -4.866504
v -0.100000 0.100000 -4.866504
v -0.100000 -0.100000 4.866504
v -0.100000 0.100000 4.866504
vt 0.625000 0.500000
vt 0.625000 0.750000
vt 0.875000 0.750000
vt 0.875000 0.500000
vt 0.375000 0.750000
vt 0.375000 1.000000
vt 0.625000 1.000000
vt 0.375000 0.000000
vt 0.375000 0.250000
vt 0.625000 0.250000
vt 0.625000 0.000000
vt 0.125000 0.500000
vt 0.125000 0.750000
vt 0.375000 0.500000
vn 0.0000 -1.0000 0.0000
vn 0.0000 0.0000 1.0000
vn -1.0000 0.0000 0.0000
vn 0.0000 1.0000 0.0000
vn 1.0000 0.0000 0.0000
vn 0.0000 0.0000 -1.0000
usemtl Material
s off
f 1/1/1 3/2/1 7/3/1 5/4/1
f 4/5/2 8/6/2 7/7/2 3/2/2
f 8/8/3 6/9/3 5/10/3 7/11/3
f 6/12/4 8/13/4 4/5/4 2/14/4
f 2/14/5 4/5/5 3/2/5 1/1/5
f 6/9/6 2/14/6 1/1/6 5/10/6
o Cube.001
v 0.095891 -1.251278 -4.979881
v 0.095891 5.802129 -4.979881
v 0.095891 -1.251278 -4.825726
v 0.095891 5.802129 -4.825726
v -0.105021 -1.251278 -4.979881
v -0.105021 5.802129 -4.979881
v -0.105021 -1.251278 -4.825726
v -0.105021 5.802129 -4.825726
v 1.176212 -1.252049 -4.980423
v 1.176212 -1.299772 -4.980423
v 1.176212 -1.252049 -4.827517
v 1.176212 -1.299772 -4.827517
v 1.357132 -1.252049 -4.980423
v 1.357132 -1.299772 -4.980423
v 1.357132 -1.252049 -4.827517
v 1.357132 -1.299772 -4.827517
v -1.400918 -1.252049 -4.826856
v 1.358389 -1.252049 -4.826856
v -1.400918 -1.144589 -4.826856
v 1.358389 -1.144589 -4.826856
v -1.400918 -1.252049 -4.980558
v 1.358389 -1.252049 -4.980558
v -1.400918 -1.144589 -4.980558
v 1.358389 -1.144589 -4.980558
v -1.403279 -1.252049 -4.980423
v -1.403279 -1.299772 -4.980423
v -1.403279 -1.252049 -4.827517
v -1.403279 -1.299772 -4.827517
v -1.222359 -1.252049 -4.980423
v -1.222359 -1.299772 -4.980423
v -1.222359 -1.252049 -4.827517
v -1.222359 -1.299772 -4.827517
vt 0.375000 0.000000
vt 0.625000 0.000000
vt 0.625000 0.250000
vt 0.375000 0.250000
vt 0.625000 0.500000
vt 0.375000 0.500000
vt 0.625000 0.750000
vt 0.375000 0.750000
vt 0.625000 1.000000
vt 0.375000 1.000000
vt 0.125000 0.500000
vt 0.125000 0.750000
vt 0.875000 0.500000
vt 0.875000 0.750000
vt 0.375000 0.000000
vt 0.625000 0.000000
vt 0.625000 0.250000
vt 0.375000 0.250000
vt 0.625000 0.500000
vt 0.375000 0.500000
vt 0.625000 0.750000
vt 0.375000 0.750000
vt 0.625000 1.000000
vt 0.375000 1.000000
vt 0.125000 0.500000
vt 0.125000 0.750000
vt 0.875000 0.500000
vt 0.875000 0.750000
vt 0.375000 0.000000
vt 0.625000 0.000000
vt 0.625000 0.250000
vt 0.375000 0.250000
vt 0.625000 0.500000
vt 0.375000 0.500000
vt 0.625000 0.750000
vt 0.375000 0.750000
vt 0.625000 1.000000
vt 0.375000 1.000000
vt 0.125000 0.500000
vt 0.125000 0.750000
vt 0.875000 0.500000
vt 0.875000 0.750000
vt 0.375000 0.000000
vt 0.625000 0.000000
vt 0.625000 0.250000
vt 0.375000 0.250000
vt 0.625000 0.500000
vt 0.375000 0.500000
vt 0.625000 0.750000
vt 0.375000 0.750000
vt 0.625000 1.000000
vt 0.375000 1.000000
vt 0.125000 0.500000
vt 0.125000 0.750000
vt 0.875000 0.500000
vt 0.875000 0.750000
vn 1.0000 0.0000 -0.0000
vn 0.0000 0.0000 1.0000
vn -1.0000 0.0000 0.0000
vn -0.0000 0.0000 -1.0000
vn 0.0000 -1.0000 0.0000
vn 0.0000 1.0000 0.0000
usemtl None
s off
f 9/15/7 10/16/7 12/17/7 11/18/7
f 11/18/8 12/17/8 16/19/8 15/20/8
f 15/20/9 16/19/9 14/21/9 13/22/9
f 13/22/10 14/21/10 10/23/10 9/24/10
f 11/25/11 15/20/11 13/22/11 9/26/11
f 16/19/12 12/27/12 10/28/12 14/21/12
f 17/29/9 18/30/9 20/31/9 19/32/9
f 19/32/8 20/31/8 24/33/8 23/34/8
f 23/34/7 24/33/7 22/35/7 21/36/7
f 21/36/10 22/35/10 18/37/10 17/38/10
f 19/39/12 23/34/12 21/36/12 17/40/12
f 24/33/11 20/41/11 18/42/11 22/35/11
f 25/43/8 26/44/8 28/45/8 27/46/8
f 27/46/12 28/45/12 32/47/12 31/48/12
f 31/48/10 32/47/10 30/49/10 29/50/10
f 29/50/11 30/49/11 26/51/11 25/52/11
f 27/53/9 31/48/9 29/50/9 25/54/9
f 32/47/7 28/55/7 26/56/7 30/49/7
f 33/57/9 34/58/9 36/59/9 35/60/9
f 35/60/8 36/59/8 40/61/8 39/62/8
f 39/62/7 40/61/7 38/63/7 37/64/7
f 37/64/10 38/63/10 34/65/10 33/66/10
f 35/67/12 39/62/12 37/64/12 33/68/12
f 40/61/11 36/69/11 34/70/11 38/63/11
o Cube.002_Cube.006
v 0.095891 -1.251278 4.829481
v 0.095891 5.802129 4.829481
v 0.095891 -1.251278 4.983636
v 0.095891 5.802129 4.983636
v -0.105021 -1.251278 4.829482
v -0.105021 5.802129 4.829482
v -0.105021 -1.251278 4.983637
v -0.105021 5.802129 4.983637
v 1.176212 -1.252049 4.828939
v 1.176212 -1.299772 4.828939
v 1.176212 -1.252049 4.981845
v 1.176212 -1.299772 4.981845
v 1.357132 -1.252049 4.828939
v 1.357132 -1.299772 4.828939
v 1.357132 -1.252049 4.981845
v 1.357132 -1.299772 4.981845
v -1.400918 -1.252049 4.982507
v 1.358389 -1.252049 4.982507
v -1.400918 -1.144589 4.982507
v 1.358389 -1.144589 4.982507
v -1.400918 -1.252049 4.828804
v 1.358389 -1.252049 4.828804
v -1.400918 -1.144589 4.828804
v 1.358389 -1.144589 4.828804
v -1.403279 -1.252049 4.828939
v -1.403279 -1.299772 4.828939
v -1.403279 -1.252049 4.981846
v -1.403279 -1.299772 4.981846
v -1.222359 -1.252049 4.828939
v -1.222359 -1.299772 4.828939
v -1.222359 -1.252049 4.981845
v -1.222359 -1.299772 4.981845
vt 0.375000 0.000000
vt 0.625000 0.000000
vt 0.625000 0.250000
vt 0.375000 0.250000
vt 0.625000 0.500000
vt 0.375000 0.500000
vt 0.625000 0.750000
vt 0.375000 0.750000
vt 0.625000 1.000000
vt 0.375000 1.000000
vt 0.125000 0.500000
vt 0.125000 0.750000
vt 0.875000 0.500000
vt 0.875000 0.750000
vt 0.375000 0.000000
vt 0.625000 0.000000
vt 0.625000 0.250000
vt 0.375000 0.250000
vt 0.625000 0.500000
vt 0.375000 0.500000
vt 0.625000 0.750000
vt 0.375000 0.750000
vt 0.625000 1.000000
vt 0.375000 1.000000
vt 0.125000 0.500000
vt 0.125000 0.750000
vt 0.875000 0.500000
vt 0.875000 0.750000
vt 0.375000 0.000000
vt 0.625000 0.000000
vt 0.625000 0.250000
vt 0.375000 0.250000
vt 0.625000 0.500000
vt 0.375000 0.500000
vt 0.625000 0.750000
vt 0.375000 0.750000
vt 0.625000 1.000000
vt 0.375000 1.000000
vt 0.125000 0.500000
vt 0.125000 0.750000
vt 0.875000 0.500000
vt 0.875000 0.750000
vt 0.375000 0.000000
vt 0.625000 0.000000
vt 0.625000 0.250000
vt 0.375000 0.250000
vt 0.625000 0.500000
vt 0.375000 0.500000
vt 0.625000 0.750000
vt 0.375000 0.750000
vt 0.625000 1.000000
vt 0.375000 1.000000
vt 0.125000 0.500000
vt 0.125000 0.750000
vt 0.875000 0.500000
vt 0.875000 0.750000
vn 1.0000 0.0000 -0.0000
vn 0.0000 0.0000 1.0000
vn -1.0000 0.0000 0.0000
vn -0.0000 0.0000 -1.0000
vn 0.0000 -1.0000 0.0000
vn 0.0000 1.0000 0.0000
usemtl None
s off
f 41/71/13 42/72/13 44/73/13 43/74/13
f 43/74/14 44/73/14 48/75/14 47/76/14
f 47/76/15 48/75/15 46/77/15 45/78/15
f 45/78/16 46/77/16 42/79/16 41/80/16
f 43/81/17 47/76/17 45/78/17 41/82/17
f 48/75/18 44/83/18 42/84/18 46/77/18
f 49/85/15 50/86/15 52/87/15 51/88/15
f 51/88/14 52/87/14 56/89/14 55/90/14
f 55/90/13 56/89/13 54/91/13 53/92/13
f 53/92/16 54/91/16 50/93/16 49/94/16
f 51/95/18 55/90/18 53/92/18 49/96/18
f 56/89/17 52/97/17 50/98/17 54/91/17
f 57/99/14 58/100/14 60/101/14 59/102/14
f 59/102/18 60/101/18 64/103/18 63/104/18
f 63/104/16 64/103/16 62/105/16 61/106/16
f 61/106/17 62/105/17 58/107/17 57/108/17
f 59/109/15 63/104/15 61/106/15 57/110/15
f 64/103/13 60/111/13 58/112/13 62/105/13
f 65/113/15 66/114/15 68/115/15 67/116/15
f 67/116/14 68/115/14 72/117/14 71/118/14
f 71/118/13 72/117/13 70/119/13 69/120/13
f 69/120/16 70/119/16 66/121/16 65/122/16
f 67/123/18 71/118/18 69/120/18 65/124/18
f 72/117/17 68/125/17 66/126/17 70/119/17
o Cube.003_Cube.007
v 0.011315 7.060987 4.726867
v -0.079041 7.052228 4.726867
v 0.511867 1.897581 4.726867
v 0.421511 1.888822 4.726867
v 0.011314 7.060987 -4.563987
v -0.079042 7.052228 -4.563987
v 0.511866 1.897581 -4.563987
v 0.421511 1.888822 -4.563987
v 0.271994 1.728368 4.829481
v 0.271993 1.728368 -4.796511
v 0.525885 1.752980 4.829481
v 0.525884 1.752980 -4.796511
v -0.251385 7.127242 4.829481
v -0.251386 7.127242 -4.796511
v 0.002506 7.151855 4.829481
v 0.002505 7.151855 -4.796511
vt 0.375000 0.000000
vt 0.625000 0.000000
vt 0.625000 0.250000
vt 0.375000 0.250000
vt 0.625000 0.500000
vt 0.375000 0.500000
vt 0.625000 0.750000
vt 0.375000 0.750000
vt 0.625000 1.000000
vt 0.375000 1.000000
vt 0.125000 0.500000
vt 0.125000 0.750000
vt 0.875000 0.500000
vt 0.875000 0.750000
vt 0.375000 0.250000
vt 0.625000 0.250000
vt 0.625000 0.000000
vt 0.375000 0.000000
vt 0.625000 0.500000
vt 0.375000 0.500000
vt 0.375000 0.750000
vt 0.625000 0.750000
vt 0.375000 1.000000
vt 0.625000 1.000000
vt 0.125000 0.500000
vt 0.125000 0.750000
vt 0.875000 0.500000
vt 0.875000 0.750000
vn 0.0965 -0.9953 -0.0000
vn 0.9953 0.0965 -0.0000
vn -0.0965 0.9953 0.0000
vn -0.9953 -0.0965 0.0000
vn -0.0000 0.0000 1.0000
vn -0.0000 0.0000 -1.0000
usemtl None
s off
f 81/127/19 82/128/19 84/129/19 83/130/19
f 83/130/20 84/129/20 88/131/20 87/132/20
f 87/132/21 88/131/21 86/133/21 85/134/21
f 85/134/22 86/133/22 82/135/22 81/136/22
f 83/137/23 87/132/23 85/134/23 81/138/23
f 88/131/24 84/139/24 82/140/24 86/133/24
f 75/141/24 76/142/24 74/143/24 73/144/24
f 80/145/21 76/142/21 75/141/21 79/146/21
f 79/146/23 77/147/23 78/148/23 80/145/23
f 78/148/19 77/147/19 73/149/19 74/150/19
f 79/146/22 75/151/22 73/152/22 77/147/22
f 76/153/20 80/145/20 78/148/20 74/154/20
o Cube.004_Cube.008
v 0.011314 7.060987 4.726867
v -0.079041 7.052227 4.726867
v 0.511867 1.897582 4.726867
v 0.421511 1.888823 4.726867
v 0.011314 7.060987 -4.563987
v -0.079041 7.052227 -4.563987
v 0.511866 1.897582 -4.563987
v 0.421511 1.888823 -4.563987
vt 0.375000 0.000000
vt 0.625000 0.000000
vt 0.625000 0.250000
vt 0.375000 0.250000
vt 0.625000 0.500000
vt 0.375000 0.500000
vt 0.625000 0.750000
vt 0.375000 0.750000
vt 0.625000 1.000000
vt 0.375000 1.000000
vt 0.125000 0.500000
vt 0.125000 0.750000
vt 0.875000 0.500000
vt 0.875000 0.750000
vn 0.0000 0.0000 1.0000
vn 0.0965 -0.9953 0.0000
vn -0.0000 0.0000 -1.0000
vn -0.0965 0.9953 0.0000
vn 0.9953 0.0965 -0.0000
vn -0.9953 -0.0965 0.0000
usemtl None
s off
f 89/155/25 90/156/25 92/157/25 91/158/25
f 91/158/26 92/157/26 96/159/26 95/160/26
f 95/160/27 96/159/27 94/161/27 93/162/27
f 93/162/28 94/161/28 90/163/28 89/164/28
f 91/165/29 95/160/29 93/162/29 89/166/29
f 96/159/30 92/167/30 90/168/30 94/161/30
